<?xml version="1.0" encoding="UTF-8"?>
<svg id="Layer_2" data-name="Layer 2" xmlns="http://www.w3.org/2000/svg" xmlns:xlink="http://www.w3.org/1999/xlink" viewBox="0 0 1817.09 1817.75">
  <defs>
    <style>
      .cls-1 {
        fill: url(#linear-gradient);
      }

      .cls-1, .cls-2, .cls-3 {
        stroke-width: 0px;
      }

      .cls-2 {
        fill: #662d8e;
      }

      .cls-3 {
        fill: #0046ff;
      }
    </style>
    <linearGradient id="linear-gradient" x1="0" y1="908.87" x2="1816.78" y2="908.87" gradientUnits="userSpaceOnUse">
      <stop offset="0" stop-color="#0046ff"/>
      <stop offset="1" stop-color="#90278c"/>
    </linearGradient>
  </defs>
  <g id="Layer_1-2" data-name="Layer 1">
    <g>
      <path class="cls-1" d="m453.33,1817.65c1.77-1.47,3.66-2.82,5.28-4.44,148.74-148.7,297.46-297.41,446.17-446.13,1.05-1.05,2.06-2.16,2.52-2.64-151.35-151.35-302.59-302.59-453.78-453.78C303.64,1060.54,152.72,1211.45,1.02,1363.16c-.48-2.28-.8-3.27-.87-4.27-.1-1.49-.03-3-.03-4.49C.12,1057.48.13,760.57,0,463.67c0-6.29,1.7-10.8,6.22-15.32C154.47,300.33,302.57,152.19,450.69,4.05c1.17-1.17,2.23-2.47,3.33-3.71,303.11,0,909.11,0,909.11,0,0,0,.03.03.34.16,0,0,.12-.12.12-.12-1.84,1.37-3.87,2.53-5.48,4.13-147.76,147.69-295.48,295.42-443.22,443.13-1.96,1.96-4.16,3.66-6.27,5.5-.09-1.98-.24-3.96-.24-5.95-.01-146.53,0-293.06.57-439.59V0c-2.99,2.29-4.42,3.58-5.78,4.94-148.24,148.23-296.48,296.47-444.69,444.73-1.48,1.48-2.55,3.38-3.81,5.08-1.64-.17-3.28-.48-4.92-.48-148.05-.02-296.11-.02-444.16,0-1.54,0-3.08.19-5.47.35,1.79,1.94,2.85,3.17,4,4.31,148.73,148.74,297.46,297.47,446.15,446.25,2.39,2.39,4.7,3.56,8.2,3.56,147.72-.09,295.44-.08,443.16-.09,1.73,0,3.46-.16,5.19-.24.38-.57.77-1.14,1.15-1.71-1.88-1.33-3.99-2.42-5.59-4.02-147.83-147.75-295.62-295.55-443.4-443.34-1.52-1.52-2.96-3.14-4.43-4.71,2.49-.1,4.98-.28,7.47-.28,146.38-.01,292.77,0,439.15-.07,2.52,0,5.05-.86,7.57-1.32,1.42,1.96,2.61,4.17,4.3,5.86,147.99,148.06,296.02,296.09,444.07,444.08,1.5,1.5,3.47,2.53,5.22,3.78-.35.57-.71,1.13-1.06,1.68h-451.14c-.22.41-.44.8-.66,1.19,1.36,1.46,2.68,2.97,4.1,4.38,101.62,101.63,203.25,203.26,304.88,304.89,46.75,46.75,93.5,93.5,140.24,140.27,1.26,1.27,2.35,2.71,3.52,4.07-1.67-.06-3.33-.18-5-.18-147.91,0-295.81,0-443.72,0-1.62,0-4.55.23-4.55.23v453.62c.75.23.7.21,1.45.43.99-1.47,1.81-3.11,3.05-4.34,148.46-148.52,296.95-297.01,445.42-445.52,1.26-1.26,2.29-2.74,3.43-4.12,6.66.03,13.32.08,19.98.08,142.53,0,285.06,0,427.59,0h6.89c-1.64,1.83-2.63,3.04-3.73,4.14-148.93,148.95-297.87,297.88-446.76,446.87-2.44,2.44-4.88,3.4-8.3,3.39-299.54-.07-599.09-.06-898.63-.07-1.99,0-3.99-.02-5.98-.03h-.04Z"/>
      <path class="cls-2" d="m1363.56.51c136.85,136.86,273.69,273.72,410.54,410.58,13.19,13.19,26.47,26.29,39.47,39.67,1.85,1.9,2.42,5.11,3.35,7.79.36,1.04.06,2.31.06,3.48v898.78c-150.95-150.95-301.86-301.86-453.22-453.22,150.23-150.23,301.23-301.23,453.25-453.25h-453.72c-.12-2.51-.3-4.44-.3-6.38-.01-147.24-.01-294.48.02-441.71,0-1.94.42-3.89.66-5.85.01-.01-.11.1-.11.1Z"/>
      <path class="cls-3" d="m453.07,1817.46c-1.22-1.52-2.3-3.16-3.67-4.53-148.26-148.3-296.55-296.59-444.83-444.88-1.36-1.36-2.66-2.79-4.49-4.71h453.89v6.08c0,147.08,0,294.15-.04,441.23,0,2.27-.58,4.53-.9,6.8,0,0,.04,0,.04,0Z"/>
    </g>
  </g>
</svg>