<?xml version="1.0" encoding="UTF-8"?>
<svg version="1.1" xmlns="http://www.w3.org/2000/svg" width="379" height="380">
<path d="M0 0 C3.13707184 -0.01514794 6.27279548 -0.05574071 9.40950751 -0.10495687 C20.41730186 -0.27703373 31.4212156 -0.35591001 42.43031478 -0.34682202 C51.46999457 -0.34152885 60.4950634 -0.47509294 69.53090072 -0.73647046 C151.52958498 -3.05949951 151.52958498 -3.05949951 171.19179606 13.65129638 C178.07684228 20.19917912 183.78520071 27.60792109 188.58612227 35.79342151 C193.2677538 43.61630988 198.90962826 48.76139922 206.35457015 53.9548099 C226.11510108 67.96610224 245.97702311 85.20314272 250.58551764 110.01041889 C254.45463423 134.33747666 253.38712956 159.36837585 252.50123954 183.88805914 C252.20445493 192.6186021 252.2024413 201.32962948 252.27753043 210.06392038 C252.35540331 219.66102842 252.25473954 229.24820786 252.06831527 238.84358859 C251.99169236 242.86115969 251.9692668 246.87302583 251.99446273 250.89120364 C252.05282627 271.16793103 250.80696115 286.61644592 236.13984847 301.65736461 C230.85987883 306.7945034 225.28478565 311.55499584 219.58867145 316.22101569 C213.16205434 321.52048298 208.51834538 327.95475724 203.52318311 334.57123554 C182.29214823 362.50643865 159.93669659 385.44722422 123.97371697 390.47843945 C103.99422705 392.94302408 83.90292481 393.00854166 63.81028247 392.54646182 C60.64032302 392.48072058 57.47093692 392.43965121 54.30048537 392.40595508 C-2.63544566 391.75792554 -57.39889149 387.06298876 -99.04442811 344.62302279 C-138.18536694 303.83464874 -140.9242175 247.14002379 -141.8399117 193.47666049 C-141.90542086 190.31508344 -142.00246838 187.1561147 -142.11087632 183.99573779 C-143.54957074 141.25211413 -142.41094009 103.31853359 -111.9698832 70.72370028 C-99.43052951 57.67586152 -85.71929259 45.85764185 -71.56526017 34.60648608 C-65.64568953 29.88777706 -60.5209021 25.11358321 -56.2654326 18.79254603 C-42.369599 -1.7357881 -22.5041102 0.06942064 0 0 Z M-88.53086686 49.98105884 C-89.04141932 50.52967641 -89.55197179 51.07829398 -90.07799554 51.64353633 C-113.47848396 73.21318195 -113.47848396 73.21318195 -128.78086686 97.04355884 C-98.6403559 102.70752566 -57.02481378 110.49519947 -29.49589372 93.42789721 C-14.25751195 82.97527485 -1.35759145 69.59679722 11.09413314 56.04355884 C11.54374797 55.55545466 11.99336281 55.06735048 12.45660233 54.56445527 C23.31831179 42.75729181 33.76764332 30.63317109 43.85215926 18.15659595 C46.74876369 14.57759535 49.76202194 11.11817292 52.83414054 7.68908191 C54.29880492 6.07905525 54.29880492 6.07905525 55.21913314 4.04355884 C41.896028 1.17326603 28.55815187 -0.6595306 14.96913314 -1.70644116 C13.95517974 -1.78504754 12.94122634 -1.86365392 11.89654708 -1.94464231 C-34.12253752 -5.08358226 -59.23713766 18.4236131 -88.53086686 49.98105884 Z M59.21913314 4.04355884 C59.21913314 34.07355884 59.21913314 64.10355884 59.21913314 95.04355884 C64.8852559 90.2140345 64.8852559 90.2140345 70.2498796 85.13979602 C70.96629119 84.42620425 71.68270278 83.71261249 72.42082381 82.97739673 C73.18111892 82.21507739 73.94141402 81.45275805 74.72474837 80.66733813 C75.54507049 79.84876834 76.3653926 79.03019855 77.21057296 78.18682361 C79.9021334 75.49963974 82.59004912 72.80884442 85.27772689 70.11777759 C87.15087693 68.2453014 89.02417414 66.37297337 90.89761519 64.50078845 C94.81216888 60.58804764 98.72462311 56.67321686 102.63588119 52.75718188 C107.16195564 48.22564365 111.69165207 43.69774984 116.22320193 39.17168754 C120.5872079 34.81275503 124.94841133 30.45102997 129.30841422 26.08809352 C131.16373916 24.23209946 133.01981283 22.37685356 134.87663245 20.52235484 C137.45993421 17.94157577 140.04003748 15.35764227 142.61927962 12.77280688 C143.39374434 12.00036639 144.16820907 11.2279259 144.96614242 10.43207812 C145.66281524 9.73258548 146.35948806 9.03309283 147.07727218 8.31240344 C147.68762533 7.70167326 148.29797849 7.09094308 148.92682719 6.46170592 C150.33139174 5.24014285 150.33139174 5.24014285 150.21913314 4.04355884 C120.18913314 4.04355884 90.15913314 4.04355884 59.21913314 4.04355884 Z M153.21913314 6.04355884 C153.21913314 36.07355884 153.21913314 66.10355884 153.21913314 97.04355884 C183.24913314 97.04355884 213.27913314 97.04355884 244.21913314 97.04355884 C239.3896088 91.37743608 239.3896088 91.37743608 234.31537032 86.01281238 C233.60177855 85.29640079 232.88818679 84.57998919 232.15297103 83.84186816 C231.39065169 83.08157306 230.62833236 82.32127795 229.84291244 81.5379436 C229.02434264 80.71762149 228.20577285 79.89729938 227.36239791 79.05211902 C224.67521404 76.36055858 221.98441872 73.67264285 219.29335189 70.98496509 C217.4208757 69.11181505 215.54854767 67.23851784 213.67636275 65.36507678 C209.76362194 61.4505231 205.84879116 57.53806886 201.93275619 53.62681079 C197.40121795 49.10073634 192.87332414 44.5710399 188.34726185 40.03949004 C183.98832933 35.67548407 179.62660427 31.31428064 175.26366782 26.95427775 C173.40767376 25.09895282 171.55242786 23.24287914 169.69792914 21.38605952 C167.11715007 18.80275777 164.53321657 16.22265449 161.94838119 13.64341235 C161.17594069 12.86894763 160.4035002 12.09448291 159.60765243 11.29654956 C158.55841346 10.25154033 158.55841346 10.25154033 157.48797774 9.1854198 C156.87724756 8.57506664 156.26651738 7.96471349 155.63728023 7.33586478 C154.41571715 5.93130023 154.41571715 5.93130023 153.21913314 6.04355884 Z M-34.78086686 98.04355884 C-30.6477892 102.97316564 -26.35120192 107.60880772 -21.78501725 112.1370647 C-20.77644418 113.14344737 -20.77644418 113.14344737 -19.74749589 114.17016101 C-18.29835798 115.61551618 -16.84806677 117.0597158 -15.39672875 118.50286174 C-13.09418034 120.7925536 -10.79485154 123.08543591 -8.4963057 125.37914538 C-2.78814871 131.07398836 2.92543966 136.76337204 8.63887191 142.45292163 C13.47351192 147.2677666 18.30605596 152.08469711 23.13588309 156.90437007 C25.3909831 159.15303155 27.64909563 161.39863686 29.9073503 163.64412951 C31.30301269 165.03615596 32.69853295 166.42832493 34.093889 167.82065845 C34.71384749 168.43545062 35.33380599 169.0502428 35.97255111 169.68366504 C41.02394279 174.7344531 46.02067552 179.89492112 50.11767745 185.76265979 C52.67006695 189.106967 55.0818268 191.54754865 59.29810119 192.5260303 C65.73071611 193.32288939 72.19539505 193.07492242 78.66053939 192.92246509 C80.75515158 192.90566097 82.84979935 192.89285832 84.94445968 192.88387561 C90.43462948 192.84965323 95.92262675 192.76137098 101.4119432 192.66153979 C107.02250446 192.56916355 112.63341981 192.52830198 118.24452376 192.48301196 C129.23701027 192.38673921 140.22789045 192.23330948 151.21913314 192.04355884 C146.6356603 186.55461566 141.77985384 181.43918413 136.73866439 176.37021899 C135.90861892 175.53199603 135.07857345 174.69377307 134.22337508 173.83014941 C131.49583214 171.07793922 128.76429106 168.32975255 126.03163314 165.58262134 C125.08636661 164.63198712 124.141105 163.681348 123.19584823 162.73070407 C119.26548198 158.77876741 115.33370133 154.828247 111.39819503 150.88142848 C105.77573129 145.24268782 100.1619679 139.59558942 94.55982471 133.93665731 C90.60746562 129.94561082 86.64557969 125.96418299 82.67647624 121.98978913 C80.31033091 119.6199942 77.94993593 117.24510857 75.59697127 114.86218143 C72.97607708 112.20979992 70.33999017 109.57348756 67.69960189 106.94053149 C66.9264363 106.15096057 66.15327071 105.36138965 65.35667586 104.54789233 C60.20699248 99.38541755 60.20699248 99.38541755 53.21913314 98.04355884 C52.58348559 98.0232989 51.94783805 98.00303897 51.29292846 97.9821651 C49.013561 97.9193578 46.74003839 97.91980263 44.45985579 97.93003345 C43.60066543 97.92988742 42.74147506 97.92974139 41.85624862 97.92959094 C39.03187145 97.93028455 36.20756121 97.93805104 33.38319564 97.94590259 C31.41878967 97.94776873 29.45438324 97.9491917 27.48997664 97.95019031 C22.33120086 97.95400004 17.17245342 97.96381712 12.0136888 97.97489429 C6.74493457 97.98514162 1.47617573 97.98969504 -3.79258561 97.99473071 C-14.12202512 98.0054408 -24.45144363 98.02249865 -34.78086686 98.04355884 Z M-129.78086686 100.04355884 C-129.78086686 161.09355884 -129.78086686 222.14355884 -129.78086686 285.04355884 C-123.94973095 280.05754506 -123.94973095 280.05754506 -118.42539811 274.81748462 C-117.25883683 273.65565158 -117.25883683 273.65565158 -116.06870866 272.47034717 C-114.84341447 271.24201663 -114.84341447 271.24201663 -113.59336686 269.98887134 C-112.73203141 269.12849261 -111.87069596 268.26811389 -110.98325944 267.38166308 C-109.17009999 265.56918129 -107.35819137 263.75544742 -105.54746842 261.94053149 C-102.79304803 259.18076366 -100.03334313 256.42636202 -97.27305436 253.67246509 C-95.50450456 251.9032543 -93.73626507 250.13373324 -91.96836686 248.36387134 C-90.74307267 247.14161349 -90.74307267 247.14161349 -89.49302506 245.89466357 C-85.35443378 241.73929798 -81.3994547 237.50317478 -77.57307267 233.06037402 C-74.14097578 229.19814732 -70.44890469 225.59015444 -66.78477311 221.94980884 C-65.95122804 221.11767871 -65.11768296 220.28554858 -64.25887895 219.42820239 C-61.62273424 216.79760948 -58.98311582 214.17053442 -56.34336686 211.54355884 C-54.54430707 209.74952028 -52.74547666 207.95525168 -50.94688249 206.16074634 C-46.56085874 201.78568758 -42.17198545 197.41350372 -37.78086686 193.04355884 C-42.76933638 187.01405306 -48.18940169 181.52182893 -53.74571061 176.01621509 C-54.70715258 175.05919113 -55.66829289 174.10186403 -56.62914872 173.14425159 C-60.16690821 169.61974021 -63.71012122 166.10072823 -67.25321794 162.58158374 C-70.25593994 159.59874176 -73.25650158 156.61375672 -76.25434899 153.62601542 C-77.64521294 152.24153828 -79.03916209 150.86016274 -80.43319535 149.47887683 C-84.82171621 145.10719216 -89.04199771 140.67632443 -93.07659745 135.97713733 C-96.18881723 132.44616905 -99.5349895 129.14704966 -102.86680436 125.82480884 C-103.60919358 125.08146289 -104.3515828 124.33811694 -105.11646867 123.57224536 C-106.6698778 122.01816097 -108.2245294 120.46531758 -109.78037858 118.91367602 C-112.17364357 116.52582232 -114.56145426 114.132606 -116.94883561 111.73887134 C-118.46283752 110.22552928 -119.97714908 108.71249695 -121.49180436 107.19980884 C-122.20839219 106.48119678 -122.92498002 105.76258471 -123.66328263 105.02219653 C-124.32131883 104.3673125 -124.97935502 103.71242846 -125.65733171 103.03769946 C-126.23800401 102.45782275 -126.81867631 101.87794604 -127.41694474 101.28049731 C-128.59744539 99.931595 -128.59744539 99.931595 -129.78086686 100.04355884 Z M240.62684798 104.50644946 C240.15026748 104.98127765 239.67368697 105.45610583 239.18266463 105.94532275 C237.59592893 107.52763193 236.01291012 109.11360278 234.43007064 110.69980884 C233.32740326 111.80180262 232.22458748 112.90364792 231.12162948 114.00535083 C228.80142347 116.32407815 226.48304582 118.64461463 224.16591048 120.9664104 C221.21395724 123.92401448 218.25760069 126.87716937 215.29981208 129.82893634 C213.01584308 132.10926429 210.73429538 134.39200297 208.45343566 136.67544055 C207.36585945 137.76367871 206.27755418 138.8511888 205.18847442 139.93792224 C199.9107265 145.20680647 194.72739467 150.49676374 189.87330794 156.16477466 C186.77405192 159.68485801 183.42521119 162.95940637 180.09803939 166.26230884 C178.98089805 167.37732776 178.98089805 167.37732776 177.84118819 168.51487231 C175.49036568 170.86015185 173.13606883 173.20190719 170.78163314 175.54355884 C169.17528115 177.14488844 167.56915917 178.74644882 165.96327376 180.34824634 C162.05121329 184.24935356 158.13630362 188.14758304 154.21913314 192.04355884 C158.38360831 197.01665451 162.72473115 201.67292268 167.34022689 206.22715259 C168.00321288 206.88635196 168.66619887 207.54555133 169.34927535 208.22472644 C172.1543738 211.01365229 174.96542995 213.79654394 177.7760179 216.57993579 C179.84120492 218.62688716 181.90326635 220.67695189 183.96522689 222.72715259 C184.89993064 223.64940883 184.89993064 223.64940883 185.85351729 224.59029651 C188.85266287 227.57295125 191.73528911 230.59834399 194.48939681 233.80942798 C199.11459911 239.16128712 204.14452704 244.11326247 209.14882064 249.10605884 C210.19031773 250.14823089 211.23166644 251.19055124 212.27287459 252.23301196 C214.43791321 254.39951389 216.60472288 256.56422395 218.77284408 258.72764087 C221.55722966 261.50627974 224.33703406 264.28945207 227.11556983 267.07393909 C229.25665076 269.21862021 231.40009094 271.3609306 233.54427123 273.50251269 C234.57131205 274.52888532 235.59760748 275.55600437 236.62315154 276.58387256 C238.04710219 278.01034616 239.47457774 279.43329854 240.90223861 280.85605884 C241.71385451 281.66687915 242.52547042 282.47769946 243.36168075 283.31309009 C244.9179736 285.15716785 244.9179736 285.15716785 246.21913314 285.04355884 C246.21913314 223.99355884 246.21913314 162.94355884 246.21913314 100.04355884 C244.0991512 100.04355884 241.96741191 103.16711866 240.62684798 104.50644946 Z M-34.78086686 193.04355884 C-33.93919465 194.01745059 -33.09752244 194.99134234 -32.23034501 195.99474597 C-29.91237236 198.69829499 -27.6335855 201.42891351 -25.38229203 204.1881969 C-14.24314359 217.82873062 -2.67467339 231.0548564 9.28163314 243.98105884 C9.99055701 244.74943883 9.99055701 244.74943883 10.71380258 245.53334165 C32.70408444 269.31828907 53.796752 290.93673354 87.93926215 292.98951411 C109.08710096 293.80799464 130.50370462 291.16127306 151.21913314 287.04355884 C150.37746093 286.06966708 149.53578872 285.09577533 148.66861129 284.0923717 C146.35063863 281.38882268 144.07185177 278.65820416 141.82055831 275.89892077 C130.68140986 262.25838705 119.11293967 249.03226127 107.15663314 236.10605884 C106.68401722 235.59380551 106.21140131 235.08155218 105.7244637 234.55377603 C83.73418184 210.7688286 62.64151428 189.15038413 28.49900413 187.09760356 C7.35116532 186.27912304 -14.06543835 188.92584461 -34.78086686 193.04355884 Z M-128.78086686 288.04355884 C-123.93292883 293.7291046 -123.93292883 293.7291046 -118.83914018 299.11226916 C-118.11713426 299.83709491 -117.39512834 300.56192065 -116.65124345 301.30871081 C-115.87957337 302.07835666 -115.1079033 302.8480025 -114.31284928 303.64097095 C-113.48452592 304.47104663 -112.65620255 305.30112231 -111.80277848 306.1563518 C-109.08312936 308.88037809 -106.35986788 311.60075916 -103.63633561 314.32090259 C-101.74143917 316.21647287 -99.84669089 318.11219032 -97.95208573 320.00805163 C-93.99226655 323.9696838 -90.03035709 327.92921633 -86.06724381 331.88755298 C-81.48117418 336.46815908 -76.89874847 341.05238694 -72.31815475 345.63846844 C-68.38018472 349.5809676 -64.44028058 353.52152597 -60.49873453 357.46044999 C-58.14640387 359.81121967 -55.79495577 362.16285914 -53.44485879 364.51586223 C-50.83294679 367.1302969 -48.21788011 369.74153337 -45.60191178 372.35190845 C-44.82012055 373.13572391 -44.03832932 373.91953937 -43.23284745 374.72710681 C-42.17098725 375.78473727 -42.17098725 375.78473727 -41.08767533 376.86373401 C-40.46957081 377.48146151 -39.85146628 378.099189 -39.21463132 378.73563552 C-37.98118728 380.15588244 -37.98118728 380.15588244 -36.78086686 380.04355884 C-36.78086686 349.68355884 -36.78086686 319.32355884 -36.78086686 288.04355884 C-67.14086686 288.04355884 -97.50086686 288.04355884 -128.78086686 288.04355884 Z M52.71141219 292.41233325 C52.08231948 293.04345019 51.45322677 293.67456714 50.80507064 294.32480884 C50.15720595 294.97171679 49.50934127 295.61862475 48.84184432 296.28513598 C47.4636086 297.66268893 46.08664399 299.04151456 44.71083236 300.42148852 C42.62743772 302.51016975 40.53885681 304.59355404 38.44960189 306.67637134 C37.10943795 308.01719722 35.76958486 309.35833388 34.43007064 310.69980884 C33.81312331 311.31473193 33.19617599 311.92965503 32.56053329 312.56321216 C29.60955993 315.52977015 26.76628802 318.53469971 24.0494554 321.7176311 C19.45901786 327.02321773 14.45418249 331.91989888 9.47844291 336.85941386 C7.69018903 338.63476594 5.90519953 340.41334469 4.12097335 342.19274402 C0.34401797 345.95835752 -3.43689837 349.7199782 -7.21836686 353.48105884 C-11.62658931 357.86568192 -16.03317456 362.25192536 -20.43560815 366.6423614 C-22.19746952 368.39772417 -23.96230368 370.1500609 -25.72726274 371.90230823 C-26.79662762 372.96804418 -27.86585438 374.03391876 -28.9349196 375.09995532 C-29.42886216 375.58873157 -29.92280473 376.07750781 -30.43171525 376.58109546 C-31.56723157 377.71643159 -32.67715045 378.87728462 -33.78086686 380.04355884 C-33.78086686 380.37355884 -33.78086686 380.70355884 -33.78086686 381.04355884 C-3.42086686 381.04355884 26.93913314 381.04355884 58.21913314 381.04355884 C58.21913314 350.35355884 58.21913314 319.66355884 58.21913314 288.04355884 C55.90270323 288.04355884 54.27868096 290.85361238 52.71141219 292.41233325 Z M123.96913314 310.54355884 C123.51121131 311.07734401 123.05328948 311.61112918 122.58149123 312.16108966 C117.31998214 318.36917296 112.56283243 324.8593754 107.97049117 331.57821155 C102.85192063 338.78350811 96.48628153 344.90428105 90.22303939 351.10215259 C88.97272178 352.34679027 88.97272178 352.34679027 87.69714522 353.61657214 C85.06106967 356.24052376 82.42175776 358.86118168 79.78163314 361.48105884 C76.2801121 364.95609858 72.78184105 368.43436253 69.28553939 371.91465259 C68.47629516 372.71559848 67.66705092 373.51654437 66.83328414 374.34176135 C66.09508941 375.07665286 65.35689467 375.81154437 64.5963304 376.56870532 C63.94237792 377.21742099 63.28842544 377.86613666 62.61465621 378.53451037 C61.10597463 379.82335436 61.10597463 379.82335436 61.21913314 381.04355884 C74.20609371 383.91736692 87.20875958 385.74747293 100.46913314 386.79355884 C101.45933204 386.87216521 102.44953094 386.95077159 103.46973586 387.03175998 C130.00371132 388.88466528 150.86921169 383.98617973 171.12806869 366.52448535 C182.31079766 356.65886955 192.6955951 346.02015334 202.84413314 335.10605884 C203.35553407 334.55744126 203.866935 334.00882369 204.39383292 333.44358134 C227.85582012 311.86694736 227.85582012 311.86694736 243.21913314 288.04355884 C177.6644752 279.58517087 177.6644752 279.58517087 123.96913314 310.54355884 Z " fill="#523DDE" transform="translate(131.78086686134338,-3.0435588359832764)"/>
</svg>
